<svg id="line_icons" height="512" viewBox="0 0 74 74" width="512" xmlns="http://www.w3.org/2000/svg" data-name="line icons"><path d="m66.517 57.6h-17.06a1 1 0 0 1 -.877-.519l-6.405-11.681a1 1 0 0 1 0-.962l8.539-15.578a1 1 0 0 1 .877-.519 1 1 0 0 1 .876.52l14.927 27.254a1 1 0 0 1 -.877 1.481zm-16.468-2h14.78l-13.238-24.178-7.4 13.493z"/><path d="m49.457 57.6h-44.185a1 1 0 0 1 -.877-1.481l22.088-40.319a1.04 1.04 0 0 1 1.754 0l22.1 40.316a1 1 0 0 1 -.876 1.481zm-42.5-2h40.811l-20.408-37.24z"/><path d="m70.25 57.6h-68a1 1 0 0 1 0-2h68a1 1 0 0 1 0 2z"/><path d="m30.7 30.827a.994.994 0 0 1 -.453-.108l-4.371-2.219-2.491 1.672a1 1 0 0 1 -.89.113l-2.2-.774a1 1 0 1 1 .665-1.886l1.723.607 2.561-1.72a1 1 0 0 1 1.01-.061l4.581 2.326 3.334-.687a1 1 0 0 1 .4 1.959l-3.677.758a1.054 1.054 0 0 1 -.192.02z"/><path d="m55.25 39.55a.99.99 0 0 1 -.454-.109l-3.322-1.691-1.852 1.25a1 1 0 0 1 -.891.113l-1.931-.683a1 1 0 0 1 .665-1.887l1.458.514 1.924-1.294a1 1 0 0 1 1.011-.061l3.535 1.8.9-.185a1 1 0 0 1 .4 1.959l-1.243.256a1.046 1.046 0 0 1 -.2.018z"/><path d="m45.562 21.583a6 6 0 1 1 6-6 6.007 6.007 0 0 1 -6 6zm0-10a4 4 0 1 0 4 4 4.005 4.005 0 0 0 -4-4z"/><path d="m45.562 8.638a1 1 0 0 1 -1-1v-.8a1 1 0 1 1 2 0v.8a1 1 0 0 1 -1 1z"/><path d="m40.893 10.155a1 1 0 0 1 -.81-.412l-.473-.651a1 1 0 0 1 1.619-1.175l.472.651a1 1 0 0 1 -.808 1.587z"/><path d="m38.006 14.128a1.012 1.012 0 0 1 -.309-.049l-.765-.248a1 1 0 0 1 .618-1.9l.765.249a1 1 0 0 1 -.309 1.951z"/><path d="m37.241 19.288a1 1 0 0 1 -.309-1.952l.765-.249a1 1 0 0 1 .618 1.9l-.765.248a1.013 1.013 0 0 1 -.309.053z"/><path d="m40.418 23.662a1 1 0 0 1 -.808-1.587l.473-.651a1 1 0 1 1 1.617 1.176l-.472.651a1 1 0 0 1 -.81.411z"/><path d="m45.562 25.333a1 1 0 0 1 -1-1v-.8a1 1 0 1 1 2 0v.8a1 1 0 0 1 -1 1z"/><path d="m50.707 23.662a1 1 0 0 1 -.811-.412l-.473-.651a1 1 0 0 1 1.619-1.176l.473.651a1 1 0 0 1 -.808 1.588z"/><path d="m53.884 19.288a1 1 0 0 1 -.308-.05l-.766-.248a1 1 0 0 1 .617-1.9l.766.249a1 1 0 0 1 -.309 1.952z"/><path d="m53.119 14.128a1 1 0 0 1 -.309-1.951l.766-.249a1 1 0 0 1 .617 1.9l-.766.248a1 1 0 0 1 -.308.052z"/><path d="m50.231 10.155a1 1 0 0 1 -.808-1.588l.473-.65a1 1 0 0 1 1.619 1.175l-.473.651a1 1 0 0 1 -.811.412z"/></svg>